<?xml version="1.0" encoding="utf-8"?>
<!-- Generator: Adobe Illustrator 16.0.0, SVG Export Plug-In . SVG Version: 6.00 Build 0)  -->
<!DOCTYPE svg PUBLIC "-//W3C//DTD SVG 1.1//EN" "http://www.w3.org/Graphics/SVG/1.1/DTD/svg11.dtd">
<svg version="1.1" id="Layer_1" xmlns="http://www.w3.org/2000/svg" xmlns:xlink="http://www.w3.org/1999/xlink" x="0px" y="0px"
	 width="402px" height="373.333px" viewBox="74.731 84.066 402 373.333" enable-background="new 74.731 84.066 402 373.333"
	 xml:space="preserve">
<g>
	<path fill="none" stroke="#010101" stroke-width="12" stroke-miterlimit="10" d="M161.096,204.357L81.927,400.329
		c0,0,17.108,50.287,79.169,50.287c62.06,0,79.168-50.287,79.168-50.287L161.096,204.357z"/>
</g>
<g>
	<path fill="none" stroke="#010101" stroke-width="12" stroke-miterlimit="10" d="M390.033,144.39l-79.168,195.944
		c0,0,17.109,50.281,79.168,50.281c62.061,0,79.168-50.281,79.168-50.281L390.033,144.39z"/>
</g>
<line fill="none" stroke="#010101" stroke-width="18" stroke-miterlimit="10" x1="163.264" y1="196.824" x2="392.211" y2="136.707"/>
<line fill="none" stroke="#010101" stroke-width="30" stroke-linecap="round" stroke-miterlimit="10" x1="275.564" y1="159.182" x2="275.564" y2="100.178"/>
<polygon fill="#010101" points="81.586,401.581 239.732,401.581 225.9,426.875 201.15,443.254 173.488,450.616 144.22,449.711 
	112.706,439.979 92.869,423.418 81.586,408.131 "/>
<polygon fill="#010101" points="310.959,341.581 469.105,341.581 455.275,366.875 430.525,383.254 402.863,390.616 373.594,389.711 
	342.08,379.979 322.244,363.418 310.959,348.131 "/>
</svg>
